# xmcd
# Track frame offsets:
# 150
# 15542
# 30005
# 42727
# 56912
# 69757
# 89760
# 102485
# 116865
# 129577
# 144377
# 157255
#
# Disc length: 2172 seconds
# Revision: 2
# Processed by: cddbd v1.5.2PL0 Copyright (c) Steve Scherf et al.
# Submitted via: VisiTrax 2.11.3.279 - For more info visit www.synapsa.com
#
DISCID=aa087a0c
DTITLE=Slim Dusty - To Whom It May Concern
DYEAR=1978
DGENRE=Australian Country
TTITLE0=To Whom It May Concern
TTITLE1=Beat Of The Government Stroke
TTITLE2=Old Bush Barbecue
TTITLE3=A Letter From Arrabury
TTITLE4=5 A.M. Blues
TTITLE5=And The Band Played Waltzing Matilda
TTITLE6=Highway Fever
TTITLE7=Marty
TTITLE8=42 Tyres
TTITLE9=Some Things A Man Can't Fight
TTITLE10=Ironbark Jim
TTITLE11=Man In The Glass
EXTD=1978 EMI Music Australia
EXTT0=
EXTT1=
EXTT2=
EXTT3=
EXTT4=
EXTT5=
EXTT6=
EXTT7=
EXTT8=
EXTT9=
EXTT10=
EXTT11=
PLAYORDER=
